<?xml version="1.0" standalone="no"?><!DOCTYPE svg PUBLIC "-//W3C//DTD SVG 1.1//EN" "http://www.w3.org/Graphics/SVG/1.1/DTD/svg11.dtd"><svg t="1746599762677" class="icon" viewBox="0 0 1024 1024" version="1.1" xmlns="http://www.w3.org/2000/svg" p-id="19542" xmlns:xlink="http://www.w3.org/1999/xlink" width="32" height="32"><path d="M512 512m-512 0a512 512 0 1 0 1024 0 512 512 0 1 0-1024 0Z" fill="#6680E5" p-id="19543"></path><path d="M495.652571 591.524571l-1.536-1.353142-102.454857-98.889143a24.118857 24.118857 0 0 1-1.353143-34.816c9.508571-9.984 25.6-10.715429 36.041143-1.609143l1.536 1.462857 58.660572 56.612571V281.709714a25.088 25.088 0 0 1 24.667428-25.673143 25.252571 25.252571 0 0 1 26.569143 23.808v233.197715l58.550857-56.210286a26.422857 26.422857 0 0 1 24.557715-7.716571c9.033143 1.828571 16.347429 8.192 19.2 16.676571a24.301714 24.301714 0 0 1-5.339429 24.393143l-1.536 1.609143-102.454857 98.889143-3.346286 2.706285a27.081143 27.081143 0 0 1-11.776 4.315429h-4.096a25.234286 25.234286 0 0 1-15.890286-6.180572z m247.04-80.713142a25.270857 25.270857 0 0 1 25.636572 22.893714v98.834286c0 53.430857-43.922286 97.206857-99.254857 98.889142H358.473143c-55.332571 0-100.717714-42.422857-102.473143-95.817142v-98.797715a25.106286 25.106286 0 0 1 24.685714-25.636571 25.270857 25.270857 0 0 1 26.550857 23.771428v98.870858c0 26.368 21.394286 48.128 48.676572 49.444571h309.942857c27.337143 0 49.883429-20.626286 51.236571-46.957714v-98.925715a24.173714 24.173714 0 0 1 6.802286-18.669714 26.038857 26.038857 0 0 1 18.816-7.899428z" fill="#FFFFFF" p-id="19544"></path></svg>